<mxfile host="app.diagrams.net" agent="Mozilla/5.0 (Windows NT 10.0; Win64; x64) AppleWebKit/537.36 (KHTML, like Gecko) Chrome/131.0.0.0 Safari/537.36" version="25.0.1">
  <diagram id="SjQKlgl5ZIp1Qycj1JTi" name="Страница — 1">
    <mxGraphModel dx="1328" dy="620" grid="1" gridSize="10" guides="1" tooltips="1" connect="1" arrows="1" fold="1" page="0" pageScale="1" pageWidth="827" pageHeight="1169" math="0" shadow="0">
      <root>
        <mxCell id="0" />
        <mxCell id="1" parent="0" />
        <mxCell id="wFXM29YjIk3hriSD8jat-1" value="" style="ellipse;whiteSpace=wrap;html=1;aspect=fixed;" vertex="1" parent="1">
          <mxGeometry x="120" y="320" width="80" height="80" as="geometry" />
        </mxCell>
        <mxCell id="wFXM29YjIk3hriSD8jat-2" value="" style="ellipse;whiteSpace=wrap;html=1;aspect=fixed;" vertex="1" parent="1">
          <mxGeometry x="360" y="200" width="80" height="80" as="geometry" />
        </mxCell>
        <mxCell id="wFXM29YjIk3hriSD8jat-3" value="" style="ellipse;whiteSpace=wrap;html=1;aspect=fixed;" vertex="1" parent="1">
          <mxGeometry x="360" y="440" width="80" height="80" as="geometry" />
        </mxCell>
        <mxCell id="wFXM29YjIk3hriSD8jat-4" value="" style="endArrow=classic;html=1;rounded=0;entryX=0.073;entryY=0.76;entryDx=0;entryDy=0;exitX=1;exitY=0.5;exitDx=0;exitDy=0;entryPerimeter=0;" edge="1" parent="1" source="wFXM29YjIk3hriSD8jat-1" target="wFXM29YjIk3hriSD8jat-2">
          <mxGeometry width="50" height="50" relative="1" as="geometry">
            <mxPoint x="270" y="410" as="sourcePoint" />
            <mxPoint x="320" y="360" as="targetPoint" />
          </mxGeometry>
        </mxCell>
        <mxCell id="wFXM29YjIk3hriSD8jat-5" value="" style="endArrow=classic;html=1;rounded=0;exitX=0;exitY=0.5;exitDx=0;exitDy=0;" edge="1" parent="1" source="wFXM29YjIk3hriSD8jat-2">
          <mxGeometry width="50" height="50" relative="1" as="geometry">
            <mxPoint x="270" y="410" as="sourcePoint" />
            <mxPoint x="200" y="340" as="targetPoint" />
          </mxGeometry>
        </mxCell>
        <mxCell id="wFXM29YjIk3hriSD8jat-7" value="" style="endArrow=classic;html=1;rounded=0;entryX=1;entryY=1;entryDx=0;entryDy=0;exitX=0.027;exitY=0.371;exitDx=0;exitDy=0;exitPerimeter=0;" edge="1" parent="1" source="wFXM29YjIk3hriSD8jat-3" target="wFXM29YjIk3hriSD8jat-1">
          <mxGeometry width="50" height="50" relative="1" as="geometry">
            <mxPoint x="194" y="500" as="sourcePoint" />
            <mxPoint x="360" y="401" as="targetPoint" />
          </mxGeometry>
        </mxCell>
        <mxCell id="wFXM29YjIk3hriSD8jat-8" value="" style="endArrow=classic;html=1;rounded=0;entryX=0;entryY=0;entryDx=0;entryDy=0;" edge="1" parent="1" target="wFXM29YjIk3hriSD8jat-3">
          <mxGeometry width="50" height="50" relative="1" as="geometry">
            <mxPoint x="201" y="370" as="sourcePoint" />
            <mxPoint x="194" y="480" as="targetPoint" />
          </mxGeometry>
        </mxCell>
        <mxCell id="wFXM29YjIk3hriSD8jat-9" value="&lt;b&gt;&lt;font style=&quot;font-size: 18px;&quot;&gt;1&lt;/font&gt;&lt;/b&gt;" style="text;html=1;align=center;verticalAlign=middle;whiteSpace=wrap;rounded=0;" vertex="1" parent="1">
          <mxGeometry x="130" y="345" width="60" height="30" as="geometry" />
        </mxCell>
        <mxCell id="wFXM29YjIk3hriSD8jat-10" value="&lt;b&gt;&lt;font style=&quot;font-size: 18px;&quot;&gt;2&lt;/font&gt;&lt;/b&gt;" style="text;html=1;align=center;verticalAlign=middle;whiteSpace=wrap;rounded=0;" vertex="1" parent="1">
          <mxGeometry x="370" y="225" width="60" height="30" as="geometry" />
        </mxCell>
        <mxCell id="wFXM29YjIk3hriSD8jat-11" value="&lt;span style=&quot;font-size: 18px;&quot;&gt;&lt;b&gt;3&lt;/b&gt;&lt;/span&gt;" style="text;html=1;align=center;verticalAlign=middle;whiteSpace=wrap;rounded=0;" vertex="1" parent="1">
          <mxGeometry x="370" y="465" width="60" height="30" as="geometry" />
        </mxCell>
        <mxCell id="wFXM29YjIk3hriSD8jat-16" value="" style="shape=ellipse;html=1;dashed=0;whiteSpace=wrap;aspect=fixed;perimeter=ellipsePerimeter;" vertex="1" parent="1">
          <mxGeometry x="10" y="350" width="30" height="30" as="geometry" />
        </mxCell>
        <mxCell id="wFXM29YjIk3hriSD8jat-14" value="" style="curved=1;endArrow=classic;html=1;rounded=0;exitX=0;exitY=0;exitDx=0;exitDy=0;" edge="1" parent="1" source="wFXM29YjIk3hriSD8jat-1">
          <mxGeometry width="50" height="50" relative="1" as="geometry">
            <mxPoint x="-60" y="340" as="sourcePoint" />
            <mxPoint x="130" y="390" as="targetPoint" />
            <Array as="points">
              <mxPoint x="70" y="310" />
              <mxPoint x="10" y="360" />
              <mxPoint x="50" y="420" />
            </Array>
          </mxGeometry>
        </mxCell>
        <mxCell id="wFXM29YjIk3hriSD8jat-18" value="&lt;font style=&quot;font-size: 18px;&quot;&gt;&lt;b&gt;&quot;0&quot;&lt;/b&gt;&lt;/font&gt;" style="text;html=1;align=center;verticalAlign=middle;whiteSpace=wrap;rounded=0;" vertex="1" parent="1">
          <mxGeometry x="-50" y="350" width="60" height="30" as="geometry" />
        </mxCell>
        <mxCell id="wFXM29YjIk3hriSD8jat-19" value="&lt;b&gt;&lt;font style=&quot;font-size: 18px;&quot;&gt;p&lt;sub&gt;10&lt;/sub&gt;&amp;nbsp;= 0,5&lt;/font&gt;&lt;/b&gt;" style="text;html=1;align=center;verticalAlign=middle;whiteSpace=wrap;rounded=0;" vertex="1" parent="1">
          <mxGeometry x="50" y="290" width="90" height="30" as="geometry" />
        </mxCell>
        <mxCell id="wFXM29YjIk3hriSD8jat-21" value="&lt;b&gt;&lt;font style=&quot;font-size: 18px;&quot;&gt;p&lt;sub&gt;12&lt;/sub&gt;&amp;nbsp;= 0,25&lt;/font&gt;&lt;/b&gt;" style="text;html=1;align=center;verticalAlign=middle;whiteSpace=wrap;rounded=0;" vertex="1" parent="1">
          <mxGeometry x="280" y="300" width="90" height="30" as="geometry" />
        </mxCell>
        <mxCell id="wFXM29YjIk3hriSD8jat-23" value="&lt;b&gt;&lt;font style=&quot;font-size: 18px;&quot;&gt;p&lt;sub&gt;13&lt;/sub&gt;&amp;nbsp;= 0,25&lt;/font&gt;&lt;/b&gt;" style="text;html=1;align=center;verticalAlign=middle;whiteSpace=wrap;rounded=0;" vertex="1" parent="1">
          <mxGeometry x="280" y="380" width="90" height="30" as="geometry" />
        </mxCell>
        <mxCell id="wFXM29YjIk3hriSD8jat-24" value="&lt;span style=&quot;font-size: 18px;&quot;&gt;&lt;b&gt;b&lt;sub&gt;1&lt;/sub&gt;&amp;nbsp;= 5&lt;/b&gt;&lt;/span&gt;" style="text;html=1;align=center;verticalAlign=middle;whiteSpace=wrap;rounded=0;" vertex="1" parent="1">
          <mxGeometry x="130" y="400" width="60" height="30" as="geometry" />
        </mxCell>
        <mxCell id="wFXM29YjIk3hriSD8jat-25" value="&lt;span style=&quot;font-size: 18px;&quot;&gt;&lt;b&gt;b&lt;sub&gt;2&lt;/sub&gt;&amp;nbsp;= 8,5&lt;/b&gt;&lt;/span&gt;" style="text;html=1;align=center;verticalAlign=middle;whiteSpace=wrap;rounded=0;" vertex="1" parent="1">
          <mxGeometry x="370" y="170" width="80" height="30" as="geometry" />
        </mxCell>
        <mxCell id="wFXM29YjIk3hriSD8jat-26" value="&lt;span style=&quot;font-size: 18px;&quot;&gt;&lt;b&gt;b&lt;sub&gt;3&lt;/sub&gt;&amp;nbsp;= 5&lt;/b&gt;&lt;/span&gt;" style="text;html=1;align=center;verticalAlign=middle;whiteSpace=wrap;rounded=0;" vertex="1" parent="1">
          <mxGeometry x="370" y="520" width="60" height="30" as="geometry" />
        </mxCell>
      </root>
    </mxGraphModel>
  </diagram>
</mxfile>
